HIERARCHY
ROOT Hips
{
	OFFSET -0.001795 -0.223333 0.028219
	CHANNELS 6 Xposition Yposition Zposition Zrotation Yrotation Xrotation 
	JOINT LeftUpLeg
	{
		OFFSET 0.069520 -0.091406 -0.006815
		CHANNELS 3 Zrotation Yrotation Xrotation
		JOINT LeftLeg
		{
			OFFSET 0.034277 -0.375199 -0.004496
			CHANNELS 3 Zrotation Yrotation Xrotation
			JOINT LeftFoot
			{
				OFFSET -0.013596 -0.397961 -0.043693
				CHANNELS 3 Zrotation Yrotation Xrotation
				JOINT LeftToe
				{
					OFFSET 0.026358 -0.055791 0.119288
					CHANNELS 3 Zrotation Yrotation Xrotation
					End Site
					{
						OFFSET 0.000000 0.000000 0.000000
					}
				}
			}
		}
	}
	JOINT RightUpLeg
	{
		OFFSET -0.067670 -0.090522 -0.004320
		CHANNELS 3 Zrotation Yrotation Xrotation
		JOINT RightLeg
		{
			OFFSET -0.038290 -0.382569 -0.008850
			CHANNELS 3 Zrotation Yrotation Xrotation
			JOINT RightFoot
			{
				OFFSET 0.015774 -0.398415 -0.042312
				CHANNELS 3 Zrotation Yrotation Xrotation
				JOINT RightToe
				{
					OFFSET -0.025372 -0.048144 0.123348
					CHANNELS 3 Zrotation Yrotation Xrotation
					End Site
					{
						OFFSET 0.000000 0.000000 0.000000
					}
				}
			}
		}
	}
	JOINT Spine
	{
		OFFSET -0.002533 0.108963 -0.026696
		CHANNELS 3 Zrotation Yrotation Xrotation
		JOINT Spine1
		{
			OFFSET 0.005487 0.135180 0.001092
			CHANNELS 3 Zrotation Yrotation Xrotation
			JOINT Spine2
			{
				OFFSET 0.001457 0.052922 0.025425
				CHANNELS 3 Zrotation Yrotation Xrotation
				JOINT Neck
				{
					OFFSET -0.002778 0.213870 -0.042857
					CHANNELS 3 Zrotation Yrotation Xrotation
					JOINT Head
					{
						OFFSET 0.005152 0.064970 0.051349
						CHANNELS 3 Zrotation Yrotation Xrotation
						End Site
						{
							OFFSET 0.000000 0.000000 0.000000
						}
					}
				}
				JOINT LeftShoulder
				{
					OFFSET 0.078845 0.121749 -0.034090
					CHANNELS 3 Zrotation Yrotation Xrotation
					JOINT LeftArm
					{
						OFFSET 0.090977 0.030469 -0.008868
						CHANNELS 3 Zrotation Yrotation Xrotation
						JOINT LeftForeArm
						{
							OFFSET 0.259612 -0.012772 -0.027456
							CHANNELS 3 Zrotation Yrotation Xrotation
							JOINT LeftHand
							{
								OFFSET 0.249234 0.008986 -0.001171
								CHANNELS 3 Zrotation Yrotation Xrotation
								End Site
								{
									OFFSET 0.000000 0.000000 0.000000
								}
							}
						}
					}
				}
				JOINT RightShoulder
				{
					OFFSET -0.081759 0.118833 -0.038615
					CHANNELS 3 Zrotation Yrotation Xrotation
					JOINT RightArm
					{
						OFFSET -0.096012 0.032551 -0.009143
						CHANNELS 3 Zrotation Yrotation Xrotation
						JOINT RightForeArm
						{
							OFFSET -0.253742 -0.013329 -0.021401
							CHANNELS 3 Zrotation Yrotation Xrotation
							JOINT RightHand
							{
								OFFSET -0.255298 0.007772 -0.005559
								CHANNELS 3 Zrotation Yrotation Xrotation
								End Site
								{
									OFFSET 0.000000 0.000000 0.000000
								}
							}
						}
					}
				}
			}
		}
	}
}
MOTION
Frames: 13
Frame Time: 0.050000
0.000000 0.981213 0.000000 -1.342533 8.516828 0.882193 0.081768 0.066684 0.831259 0.523141 0.016899 -1.685156 -2.726226 0.955238 11.427022 0.000000 0.000000 0.000000 -0.572857 0.626100 -6.529949 -0.154163 0.337432 11.999886 -2.447226 -7.622760 6.585240 0.000000 0.000000 0.000000 -0.634520 -0.105483 3.061359 1.033545 -0.396218 -1.559997 -1.476242 -0.899230 5.947254 2.892389 -0.999663 -9.636388 0.000000 0.000000 0.000000 -11.665806 2.116067 -2.575389 -27.579473 -11.771021 -0.793121 9.734537 -11.183243 -0.595209 0.000000 0.000000 0.000000 12.113068 -0.550466 -0.710520 32.940996 8.837696 -1.370425 -4.255086 8.240380 0.084670 0.000000 0.000000 0.000000 
-0.000657 0.984065 0.002389 -1.321090 8.285968 0.674178 0.065846 0.092081 1.134068 0.765558 0.027635 -2.454657 -2.533886 0.958464 10.811087 0.000000 0.000000 0.000000 -0.483118 0.672412 -7.004209 -0.088717 0.348678 13.433224 -3.342309 -9.287833 4.556585 0.000000 0.000000 0.000000 -1.182564 -0.099233 3.412704 0.874569 -0.279317 -2.272234 -0.511869 -1.481295 6.056605 2.009024 -0.455484 -9.672358 0.000000 0.000000 0.000000 -10.163157 2.460840 -2.360680 -26.657808 -13.067832 -0.608859 10.204924 -9.968401 -0.547535 0.000000 0.000000 0.000000 10.909626 -1.088371 -1.022931 31.324454 9.339450 -1.172398 -6.576330 8.742577 -0.038257 0.000000 0.000000 0.000000 
-0.002779 0.988331 0.004437 -1.409569 7.926032 0.687152 0.876583 -0.013444 0.137103 0.546283 -0.037354 -0.364727 -3.151298 -0.242407 10.593860 0.000000 0.000000 0.000000 -0.334507 0.729084 -7.534453 0.417775 0.245970 14.485268 -3.018600 -8.403056 3.580948 0.000000 0.000000 0.000000 -0.758504 -0.107591 3.229676 1.086127 -0.262311 -4.213332 -1.113510 -1.832565 8.340650 2.472380 -0.846585 -9.530394 0.000000 0.000000 0.000000 -7.995128 2.818056 -2.104611 -26.145320 -13.908479 -0.619640 12.269509 -10.339623 -0.743059 0.000000 0.000000 0.000000 9.942338 -1.011447 -0.926435 28.935918 9.542583 -1.224349 -6.419252 8.787048 -0.035469 0.000000 0.000000 0.000000 
-0.006399 0.991392 0.005889 -1.347562 7.693248 0.351953 0.848280 -0.024339 -0.024628 0.935826 -0.133368 0.959826 -3.026712 -1.196141 8.394128 0.000000 0.000000 0.000000 -0.138679 0.720459 -7.319103 0.597817 0.208102 14.457980 -2.760661 -7.644662 2.715809 0.000000 0.000000 0.000000 -1.102500 -0.093841 3.156312 0.867740 -0.215970 -3.380474 0.086900 -3.203976 7.755098 1.340609 -0.212545 -9.334582 0.000000 0.000000 0.000000 -7.852989 3.924518 -2.384087 -24.129829 -14.564234 -0.572780 13.021064 -9.952187 -0.722985 0.000000 0.000000 0.000000 8.316862 -1.342827 -1.164059 27.038042 10.790896 -0.814470 -8.174561 8.310423 -0.135283 0.000000 0.000000 0.000000 
-0.011865 0.995486 0.006972 -1.368848 7.691483 0.186532 1.535647 -0.072419 -0.439217 0.433937 -0.126875 2.031710 -3.590407 -1.891917 8.971714 0.000000 0.000000 0.000000 0.391507 0.756269 -7.390899 0.106355 0.336581 14.832428 -3.018272 -8.240145 2.635183 0.000000 0.000000 0.000000 -1.347509 -0.088444 3.221960 1.447437 -0.470838 -3.437007 -0.263844 -3.241559 7.228625 1.586376 -0.438370 -8.710229 0.000000 0.000000 0.000000 -6.932301 3.211309 -1.973149 -21.118842 -14.611201 -0.565824 13.676011 -9.873394 -0.779372 0.000000 0.000000 0.000000 8.043531 -2.236266 -1.527403 23.660773 11.065122 -0.724045 -8.943467 9.246101 -0.218891 0.000000 0.000000 0.000000 
-0.018970 0.998790 0.007738 -1.496472 7.445571 0.032609 1.936276 -0.120812 -1.018509 0.602110 -0.211455 3.445868 -3.753715 -2.396697 8.638784 0.000000 0.000000 0.000000 0.986992 0.777551 -7.276585 -0.144560 0.401699 14.412358 -2.825777 -7.699128 2.181566 0.000000 0.000000 0.000000 -1.368079 -0.093926 3.392195 1.603812 -0.535212 -3.565372 -0.019195 -3.989069 7.153187 0.949882 -0.037612 -8.945219 0.000000 0.000000 0.000000 -6.034383 3.644210 -1.965197 -18.944207 -15.177713 -0.558089 14.055073 -9.651527 -0.761931 0.000000 0.000000 0.000000 5.925865 -2.362000 -1.437348 22.638727 12.077400 -0.522815 -10.600151 8.464976 -0.286489 0.000000 0.000000 0.000000 
-0.026802 1.002967 0.008220 -1.398115 7.087195 0.191949 2.477547 -0.171747 -1.645716 0.356960 -0.212167 4.155055 -3.648023 -2.364276 8.432147 0.000000 0.000000 0.000000 1.565816 0.803573 -7.245355 -0.715186 0.537615 13.676705 -2.651163 -7.356208 2.495460 0.000000 0.000000 0.000000 -1.503986 -0.095897 3.639281 1.785753 -0.603938 -3.815572 -0.076540 -4.080907 6.972007 1.147993 -0.170803 -9.242461 0.000000 0.000000 0.000000 -4.468379 3.395419 -1.665541 -17.307016 -15.080932 -0.591595 13.454376 -9.015176 -0.655821 0.000000 0.000000 0.000000 5.411125 -2.819534 -1.581569 19.981465 12.718020 -0.444377 -10.663857 7.918516 -0.264039 0.000000 0.000000 0.000000 
-0.034807 1.006434 0.008761 -1.262708 6.640651 0.480907 2.824313 -0.216471 -2.273892 0.338343 -0.227968 4.578379 -3.557122 -2.278745 8.381859 0.000000 0.000000 0.000000 2.054543 0.820150 -7.194426 -1.164539 0.620909 12.454081 -2.378955 -6.823456 2.943260 0.000000 0.000000 0.000000 -1.479380 -0.087895 3.417620 1.893190 -0.639201 -4.084759 -0.159898 -4.032003 7.056079 0.912466 -0.027050 -9.132500 0.000000 0.000000 0.000000 -3.520648 3.419017 -1.557873 -15.948966 -15.308725 -0.598682 12.457120 -8.021996 -0.506639 0.000000 0.000000 0.000000 4.277445 -3.024896 -1.537090 18.964688 13.441682 -0.374654 -10.800267 6.432964 -0.178555 0.000000 0.000000 0.000000 
-0.042143 1.008859 0.009870 -0.979445 6.137536 0.778794 3.014066 -0.263892 -3.001514 0.325751 -0.263761 5.429396 -3.482993 -2.294536 8.211897 0.000000 0.000000 0.000000 2.138371 0.804357 -7.046326 -1.325588 0.639426 11.611570 -2.260570 -6.598142 3.090125 0.000000 0.000000 0.000000 -1.588763 -0.081226 3.398875 1.876849 -0.610269 -4.539779 -0.114096 -3.901569 7.389234 1.014154 -0.064985 -9.715873 0.000000 0.000000 0.000000 -2.887287 3.557849 -1.532436 -15.464099 -15.464169 -0.609822 11.660756 -6.622205 -0.359208 0.000000 0.000000 0.000000 3.482858 -3.060794 -1.460651 17.608490 14.463773 -0.310977 -10.163496 3.907340 -0.009776 0.000000 0.000000 0.000000 
-0.048380 1.010265 0.012000 -0.704067 6.306018 0.839126 3.275460 -0.290070 -3.398573 0.013383 -0.238700 5.872728 -3.652935 -2.434119 8.496991 0.000000 0.000000 0.000000 2.267546 0.741050 -6.448024 -1.691050 0.664540 10.243978 -2.360890 -6.920845 3.475577 0.000000 0.000000 0.000000 -1.609234 -0.070305 3.066080 1.893940 -0.610490 -4.622018 -0.235983 -3.929096 7.704440 0.573093 0.262719 -9.938782 0.000000 0.000000 0.000000 -2.639687 3.898083 -1.630331 -14.922387 -16.054948 -0.579843 10.591126 -5.695200 -0.253919 0.000000 0.000000 0.000000 2.908925 -3.120809 -1.410678 16.411349 14.425577 -0.364976 -9.372829 2.252517 0.087189 0.000000 0.000000 0.000000 
-0.053218 1.011086 0.015140 -0.454681 6.057400 0.661995 3.314898 -0.298558 -3.578489 0.291400 -0.316839 6.668792 -3.820367 -2.613914 8.767049 0.000000 0.000000 0.000000 2.350432 0.698357 -6.055510 -1.830042 0.680937 9.854720 -2.353332 -6.946322 3.609141 0.000000 0.000000 0.000000 -1.435211 -0.081594 3.220788 1.856270 -0.571713 -5.056481 -0.241740 -3.761678 8.022933 0.768844 0.124723 -9.903664 0.000000 0.000000 0.000000 -2.900536 3.789172 -1.620152 -15.060639 -15.829775 -0.607387 10.122583 -5.102760 -0.203292 0.000000 0.000000 0.000000 2.196989 -2.963821 -1.267620 15.674738 14.592262 -0.385749 -8.414783 0.500067 0.161717 0.000000 0.000000 0.000000 
-0.056649 1.011636 0.018936 -0.164709 6.066594 0.537294 3.356608 -0.318145 -3.913495 0.326948 -0.377341 7.782137 -4.001965 -2.723593 9.165638 0.000000 0.000000 0.000000 2.302869 0.630916 -5.490681 -1.866449 0.664955 9.297541 -2.366149 -7.016669 3.773247 0.000000 0.000000 0.000000 -1.234739 -0.082410 3.019288 1.816704 -0.559690 -4.970126 -0.229502 -3.714706 8.067677 0.463353 0.310432 -9.490455 0.000000 0.000000 0.000000 -3.218628 4.052462 -1.755674 -15.086599 -15.992330 -0.595726 9.363561 -4.588296 -0.151381 0.000000 0.000000 0.000000 1.693655 -2.928453 -1.196229 14.809028 14.205195 -0.443087 -7.685320 -0.121424 0.172115 0.000000 0.000000 0.000000 
-0.059111 1.011943 0.022688 0.237673 6.137288 0.622812 3.199533 -0.338936 -4.209618 0.441441 -0.434675 8.512436 -4.212493 -2.712012 9.865363 0.000000 0.000000 0.000000 2.153481 0.610256 -5.358922 -1.732778 0.637754 9.300127 -2.674998 -7.712702 3.694176 0.000000 0.000000 0.000000 -1.028009 -0.084392 2.888117 1.826901 -0.554654 -5.114684 -0.473772 -3.544675 8.217383 0.679906 0.153530 -9.179128 0.000000 0.000000 0.000000 -3.490491 3.995623 -1.774246 -15.066347 -15.952576 -0.597087 8.599564 -3.864060 -0.100853 0.000000 0.000000 0.000000 1.229647 -2.615167 -1.030449 14.096110 13.581800 -0.515366 -6.742430 -0.929975 0.175772 0.000000 0.000000 0.000000 
